<?xml version="1.0" encoding="iso-8859-1"?>
<!-- Generator: Adobe Illustrator 19.0.0, SVG Export Plug-In . SVG Version: 6.00 Build 0)  -->
<svg version="1.1" id="Capa_1" xmlns="http://www.w3.org/2000/svg" x="0px" y="0px"
     viewBox="0 0 468.293 468.293" style="enable-background:new 0 0 468.293 468.293;" xml:space="preserve">
<path style="fill:#3A556A;" d="M384.96,69.299H0V17.627C0,10.73,5.591,5.139,12.488,5.139h359.984
	c6.897,0,12.488,5.591,12.488,12.488V69.299z"/>
<path style="fill:#E1E6E9;" d="M372.472,377.267H12.488C5.591,377.267,0,371.676,0,364.779V69.299h384.96v295.48
	C384.96,371.676,379.369,377.267,372.472,377.267z"/>
<circle style="fill:#FCD462;" cx="41.703" cy="37.22" r="16.041"/>
<circle style="fill:#27A2DB;" cx="93.034" cy="37.22" r="16.041"/>
<circle style="fill:#44C4A1;" cx="144.359" cy="37.22" r="16.041"/>
<path style="fill:#27A2DB;" d="M439.864,346.904l28.429-6.996l0-35.814l-28.43-6.996c-2.953-13.419-8.258-25.931-15.431-37.153
	l15.181-25.091l-25.325-25.325l-25.093,15.182c-11.221-7.173-23.732-12.476-37.15-15.429l-6.997-28.432h-35.815l-6.997,28.432
	c-13.42,2.953-25.931,8.258-37.154,15.431l-25.093-15.181l-25.325,25.326l15.182,25.092c-7.172,11.222-12.477,23.732-15.429,37.15
	l-28.431,6.997v35.814l28.431,6.996c2.953,13.419,8.257,25.93,15.43,37.152l-15.18,25.091l25.325,25.325l25.09-15.18
	c11.223,7.173,23.735,12.479,37.155,15.431l6.996,28.427h35.815l6.996-28.427c13.421-2.953,25.934-8.258,37.156-15.432
	l25.089,15.178l25.324-25.325l-15.18-25.088C431.606,372.837,436.911,360.324,439.864,346.904z"/>
<circle style="fill:#E1E6E9;" cx="327.143" cy="321.998" r="89.825"/>
<circle style="fill:#1C75A1;" cx="327.143" cy="321.998" r="51.325"/>
<g>
	<path style="fill:#3A556A;" d="M69.263,172.518l-6.561,14.906H50.889l28.871-65.523h11.813l28.871,65.523h-11.809l-6.564-14.906
		H69.263z M97.573,162.304l-11.905-26.998l-11.905,26.998H97.573z"/>
	<path style="fill:#3A556A;" d="M173.784,127.616c4.562,3.814,6.843,9.688,6.843,17.622c0,7.941-2.331,13.755-6.984,17.439
		c-4.657,3.685-11.798,5.531-21.421,5.531h-11.622v19.217h-11.062v-65.523h22.497C161.971,121.902,169.222,123.809,173.784,127.616z
		 M165.957,154.66c2.216-2.342,3.326-5.775,3.326-10.306c0-4.531-1.408-7.736-4.219-9.612c-2.811-1.877-7.217-2.807-13.217-2.807
		h-11.249v26.243h12.843C159.564,158.176,163.737,157.009,165.957,154.66z"/>
	<path style="fill:#3A556A;" d="M193.656,121.902h11.062v65.523h-11.062V121.902z"/>
</g>
<path style="fill:#E1E6E9;" d="M347.497,49.707H199.617c-6.897,0-12.488-5.591-12.488-12.488v0c0-6.897,5.591-12.488,12.488-12.488
	h147.879c6.897,0,12.488,5.591,12.488,12.488v0C359.984,44.116,354.393,49.707,347.497,49.707z"/>
<g>
</g>
<g>
</g>
<g>
</g>
<g>
</g>
<g>
</g>
<g>
</g>
<g>
</g>
<g>
</g>
<g>
</g>
<g>
</g>
<g>
</g>
<g>
</g>
<g>
</g>
<g>
</g>
<g>
</g>
</svg>
