<?xml version="1.0" encoding="iso-8859-1"?>
<!-- Generator: Adobe Illustrator 19.0.0, SVG Export Plug-In . SVG Version: 6.00 Build 0)  -->
<svg xmlns="http://www.w3.org/2000/svg" version="1.1" id="Capa_1" x="0px" y="0px" viewBox="0 0 455 455"
     style="enable-background:new 0 0 455 455;" xml:space="preserve" width="512" height="512">
<g>
	<polygon style="fill:#98D9D5;" points="0,425 227.5,405 455,425 455,455 0,455  "/>
	<polygon style="fill:#C1E8E6;" points="0,395 227.5,375 455,395 455,425 0,425  "/>
	<polygon style="fill:#F2EBD9;" points="455,122.3 455,395 0,395 0,122.3 227.5,102.3  "/>
	<rect x="0" y="30" style="fill:#F2484B;" width="455" height="92.3"/>
	<path style="fill:#F2484B;" d="M404.5,234.3h-30c-4.143,0-7.5-3.358-7.5-7.5s3.357-7.5,7.5-7.5h30c4.143,0,7.5,3.358,7.5,7.5   S408.643,234.3,404.5,234.3z"/>
	<path style="fill:#185F8D;" d="M323.5,234.3h-30c-4.143,0-7.5-3.358-7.5-7.5s3.357-7.5,7.5-7.5h30c4.143,0,7.5,3.358,7.5,7.5   S327.643,234.3,323.5,234.3z"/>
	<path style="fill:#185F8D;" d="M242.5,234.3h-30c-4.142,0-7.5-3.358-7.5-7.5s3.358-7.5,7.5-7.5h30c4.143,0,7.5,3.358,7.5,7.5   S246.643,234.3,242.5,234.3z"/>
	<path style="fill:#185F8D;" d="M161.5,234.3h-30c-4.142,0-7.5-3.358-7.5-7.5s3.358-7.5,7.5-7.5h30c4.142,0,7.5,3.358,7.5,7.5   S165.642,234.3,161.5,234.3z"/>
	<path style="fill:#185F8D;" d="M80.5,234.3h-30c-4.142,0-7.5-3.358-7.5-7.5s3.358-7.5,7.5-7.5h30c4.142,0,7.5,3.358,7.5,7.5   S84.642,234.3,80.5,234.3z"/>
	<path style="fill:#185F8D;" d="M323.5,288.3h-30c-4.143,0-7.5-3.358-7.5-7.5s3.357-7.5,7.5-7.5h30c4.143,0,7.5,3.358,7.5,7.5   S327.643,288.3,323.5,288.3z"/>
	<path style="fill:#185F8D;" d="M242.5,288.3h-30c-4.142,0-7.5-3.358-7.5-7.5s3.358-7.5,7.5-7.5h30c4.143,0,7.5,3.358,7.5,7.5   S246.643,288.3,242.5,288.3z"/>
	<path style="fill:#185F8D;" d="M161.5,288.3h-30c-4.142,0-7.5-3.358-7.5-7.5s3.358-7.5,7.5-7.5h30c4.142,0,7.5,3.358,7.5,7.5   S165.642,288.3,161.5,288.3z"/>
	<path style="fill:#185F8D;" d="M80.5,288.3h-30c-4.142,0-7.5-3.358-7.5-7.5s3.358-7.5,7.5-7.5h30c4.142,0,7.5,3.358,7.5,7.5   S84.642,288.3,80.5,288.3z"/>
	<path style="fill:#185F8D;" d="M323.5,342.3h-30c-4.143,0-7.5-3.358-7.5-7.5s3.357-7.5,7.5-7.5h30c4.143,0,7.5,3.358,7.5,7.5   S327.643,342.3,323.5,342.3z"/>
	<path style="fill:#F2484B;" d="M404.5,288.3h-30c-4.143,0-7.5-3.358-7.5-7.5s3.357-7.5,7.5-7.5h30c4.143,0,7.5,3.358,7.5,7.5   S408.643,288.3,404.5,288.3z"/>
	<path style="fill:#F2484B;" d="M404.5,342.3h-30c-4.143,0-7.5-3.358-7.5-7.5s3.357-7.5,7.5-7.5h30c4.143,0,7.5,3.358,7.5,7.5   S408.643,342.3,404.5,342.3z"/>
	<path style="fill:#185F8D;" d="M242.5,342.3h-30c-4.142,0-7.5-3.358-7.5-7.5s3.358-7.5,7.5-7.5h30c4.143,0,7.5,3.358,7.5,7.5   S246.643,342.3,242.5,342.3z"/>
	<path style="fill:#185F8D;" d="M161.5,342.3h-30c-4.142,0-7.5-3.358-7.5-7.5s3.358-7.5,7.5-7.5h30c4.142,0,7.5,3.358,7.5,7.5   S165.642,342.3,161.5,342.3z"/>
	<path style="fill:#185F8D;" d="M80.5,342.3h-30c-4.142,0-7.5-3.358-7.5-7.5s3.358-7.5,7.5-7.5h30c4.142,0,7.5,3.358,7.5,7.5   S84.642,342.3,80.5,342.3z"/>
	<path style="fill:#F2484B;" d="M404.5,180.3h-30c-4.143,0-7.5-3.358-7.5-7.5s3.357-7.5,7.5-7.5h30c4.143,0,7.5,3.358,7.5,7.5   S408.643,180.3,404.5,180.3z"/>
	<path style="fill:#185F8D;" d="M323.5,180.3h-30c-4.143,0-7.5-3.358-7.5-7.5s3.357-7.5,7.5-7.5h30c4.143,0,7.5,3.358,7.5,7.5   S327.643,180.3,323.5,180.3z"/>
	<path style="fill:#185F8D;" d="M242.5,180.3h-30c-4.142,0-7.5-3.358-7.5-7.5s3.358-7.5,7.5-7.5h30c4.143,0,7.5,3.358,7.5,7.5   S246.643,180.3,242.5,180.3z"/>
	<path style="fill:#185F8D;" d="M161.5,180.3h-30c-4.142,0-7.5-3.358-7.5-7.5s3.358-7.5,7.5-7.5h30c4.142,0,7.5,3.358,7.5,7.5   S165.642,180.3,161.5,180.3z"/>
	<path style="fill:#185F8D;" d="M80.5,180.3h-30c-4.142,0-7.5-3.358-7.5-7.5s3.358-7.5,7.5-7.5h30c4.142,0,7.5,3.358,7.5,7.5   S84.642,180.3,80.5,180.3z"/>
	<path style="fill:#98D9D5;" d="M422.5,30v15c0,8.28-6.72,15-15,15s-15-6.72-15-15V30V15c0-8.28,6.72-15,15-15s15,6.72,15,15V30z"/>
	<path style="fill:#98D9D5;" d="M302.5,30v15c0,8.28-6.72,15-15,15s-15-6.72-15-15V30V15c0-8.28,6.72-15,15-15s15,6.72,15,15V30z"/>
	<path style="fill:#98D9D5;" d="M182.5,30v15c0,8.28-6.72,15-15,15s-15-6.72-15-15V30V15c0-8.28,6.72-15,15-15s15,6.72,15,15V30z"/>
	<path style="fill:#98D9D5;" d="M62.5,30v15c0,8.28-6.72,15-15,15s-15-6.72-15-15V30V15c0-8.28,6.72-15,15-15s15,6.72,15,15V30z"/>
</g>















</svg>
