<?xml version="1.0" encoding="iso-8859-1"?>
<!-- Generator: Adobe Illustrator 19.0.0, SVG Export Plug-In . SVG Version: 6.00 Build 0)  -->
<svg version="1.1" id="Layer_1" xmlns="http://www.w3.org/2000/svg" x="0px" y="0px"
     viewBox="0 0 460 460" style="enable-background:new 0 0 460 460;" xml:space="preserve">
<g id="XMLID_1011_">
	<path id="XMLID_1012_" style="fill:#354A67;" d="M230,0c127.03,0,230,102.97,230,230S357.03,460,230,460l-60-230L230,0z"/>
	<path id="XMLID_1013_" style="fill:#466289;" d="M230,460C102.97,460,0,357.03,0,230S102.97,0,230,0V460z"/>
	<path id="XMLID_1014_" style="fill:#BEC8D6;" d="M230,420l-20-200l210,10C420,334.77,334.77,420,230,420z"/>
	<path id="XMLID_1015_" style="fill:#DAE0E7;" d="M230,40c104.77,0,190,85.23,190,190H210L230,40z"/>
	<path id="XMLID_1016_" style="fill:#DAE0E7;" d="M230,230v190c-104.77,0-190-85.23-190-190l95-30L230,230z"/>
	<path id="XMLID_1017_" style="fill:#FFFFFF;" d="M230,40v190H40C40,125.23,125.23,40,230,40z"/>
	
		<rect id="XMLID_1018_" x="142.496" y="89.424" transform="matrix(-0.866 0.5 -0.5 -0.866 346.103 116.1065)" style="fill:#DAE0E7;" width="29.999" height="29.999"/>
	
		<rect id="XMLID_1019_" x="89.423" y="142.503" transform="matrix(-0.5 0.866 -0.866 -0.5 293.0349 145.8244)" style="fill:#DAE0E7;" width="29.999" height="29.999"/>
	
		<rect id="XMLID_1020_" x="89.419" y="287.503" transform="matrix(0.5 0.866 -0.866 0.5 314.1816 60.8195)" style="fill:#BEC8D6;" width="29.999" height="29.999"/>
	
		<rect id="XMLID_1021_" x="142.505" y="340.583" transform="matrix(0.866 0.5 -0.5 0.866 198.8977 -31.1126)" style="fill:#BEC8D6;" width="29.999" height="29.999"/>
	
		<rect id="XMLID_1022_" x="287.508" y="340.583" transform="matrix(0.866 -0.5 0.5 0.866 -137.2649 198.8984)" style="fill:#A3B1C4;" width="29.999" height="29.999"/>
	
		<rect id="XMLID_1023_" x="340.582" y="287.492" transform="matrix(0.5 -0.866 0.866 0.5 -84.1765 459.1824)" style="fill:#A3B1C4;" width="29.999" height="29.999"/>
	<polygon id="XMLID_1024_" style="fill:#354A67;" points="333.241,106.256 230.711,208.787 230.711,251.213 354.454,127.47 	"/>
	<polygon id="XMLID_1025_" style="fill:#466289;" points="181.213,159.289 160,180.502 230.711,251.213 230.711,208.787 	"/>
	<rect id="XMLID_1026_" x="230" y="360" style="fill:#A3B1C4;" width="15" height="30"/>
	<rect id="XMLID_1027_" x="230" y="70" style="fill:#BEC8D6;" width="15" height="30"/>
	<rect id="XMLID_1028_" x="215" y="360" style="fill:#BEC8D6;" width="15" height="30"/>
	<rect id="XMLID_1029_" x="215" y="70" style="fill:#DAE0E7;" width="15" height="30"/>
	<rect id="XMLID_1030_" x="360" y="230" style="fill:#A3B1C4;" width="30" height="15"/>
	<rect id="XMLID_1031_" x="360" y="215" style="fill:#BEC8D6;" width="30" height="15"/>
	<rect id="XMLID_1032_" x="70" y="230" style="fill:#BEC8D6;" width="30" height="15"/>
	<rect id="XMLID_1033_" x="70" y="215" style="fill:#DAE0E7;" width="30" height="15"/>
</g>
<g>
</g>
<g>
</g>
<g>
</g>
<g>
</g>
<g>
</g>
<g>
</g>
<g>
</g>
<g>
</g>
<g>
</g>
<g>
</g>
<g>
</g>
<g>
</g>
<g>
</g>
<g>
</g>
<g>
</g>
</svg>
