<?xml version="1.0" encoding="iso-8859-1"?>
<!-- Generator: Adobe Illustrator 19.0.0, SVG Export Plug-In . SVG Version: 6.00 Build 0)  -->
<svg version="1.1" id="Capa_1" xmlns="http://www.w3.org/2000/svg" x="0px" y="0px"
     viewBox="0 0 512 512" style="enable-background:new 0 0 512 512;" xml:space="preserve">
<path style="fill:#29485A;" d="M0,494.933h512V512H0V494.933z"/>
<path style="fill:#6DC8BF;" d="M17.067,366.933h68.267v102.4H17.067V366.933z"/>
<path style="fill:#00ADDC;" d="M119.467,264.533h68.267v204.8h-68.267V264.533z"/>
<path style="fill:#6DC8BF;" d="M221.867,315.733h68.267v153.6h-68.267V315.733z"/>
<path style="fill:#29ABE2;" d="M324.267,179.2h68.267v290.133h-68.267V179.2z"/>
<path style="fill:#0071BC;" d="M426.667,76.8h68.267v392.533h-68.267V76.8z"/>
<g>
	<path style="fill:#ED1C24;" d="M14.566,270.566L2.5,258.5l145.067-145.067c3.328-3.328,8.738-3.328,12.066,0l79.3,79.3L429.167,2.5
		l12.066,12.066L244.966,210.833c-3.328,3.328-8.738,3.328-12.066,0l-79.3-79.3L14.566,270.566z"/>
	<path style="fill:#ED1C24;" d="M443.733,51.2h-17.067V17.067h-34.133V0H435.2c4.71,0,8.533,3.823,8.533,8.533V51.2z"/>
</g>
<g>
	<path style="fill:#29485A;" d="M0,0h119.467v17.067H0V0z"/>
	<path style="fill:#29485A;" d="M0,25.6h119.467v17.067H0V25.6z"/>
	<path style="fill:#29485A;" d="M0,51.2h119.467v17.067H0V51.2z"/>
	<path style="fill:#29485A;" d="M0,76.8h59.733v17.067H0V76.8z"/>
</g>
<g>
</g>
<g>
</g>
<g>
</g>
<g>
</g>
<g>
</g>
<g>
</g>
<g>
</g>
<g>
</g>
<g>
</g>
<g>
</g>
<g>
</g>
<g>
</g>
<g>
</g>
<g>
</g>
<g>
</g>
</svg>
