<?xml version="1.0" encoding="iso-8859-1"?>
<!-- Generator: Adobe Illustrator 19.0.0, SVG Export Plug-In . SVG Version: 6.00 Build 0)  -->
<svg version="1.1" id="Capa_1" xmlns="http://www.w3.org/2000/svg" x="0px" y="0px"
     viewBox="0 0 512 512" style="enable-background:new 0 0 512 512;" xml:space="preserve">
<path style="fill:#73553A;" d="M497,376h-76.985L210,481c0,8.291,6.709,15,15,15h272c8.291,0,15-6.709,15-15v-90
	C512,382.709,505.291,376,497,376z"/>
<path style="fill:#FFD400;" d="M240,16C107.701,16,0,123.699,0,256c0,132.299,107.701,240,240,240s240-107.701,240-240
	C480,123.699,372.299,16,240,16z M240,76c32.999,0,60,26.999,60,60c0,32.999-27.001,60-60,60s-60-27.001-60-60
	C180,102.999,207.001,76,240,76z M120,316c-32.999,0-60-27.001-60-60c0-33.001,27.001-60,60-60s60,26.999,60,60
	C180,288.999,152.999,316,120,316z M240,436c-32.999,0-60-27.001-60-60c0-33.001,27.001-60,60-60s60,26.999,60,60
	C300,408.999,272.999,436,240,436z M360,316c-32.999,0-60-27.001-60-60c0-33.001,27.001-60,60-60s60,26.999,60,60
	C420,288.999,392.999,316,360,316z"/>
<path style="fill:#FDBF00;" d="M240,16v60c32.999,0,60,26.999,60,60c0,32.999-27.001,60-60,60v120c32.999,0,60,26.999,60,60
	c0,32.999-27.001,60-60,60v60c132.299,0,240-107.701,240-240C480,123.699,372.299,16,240,16z M360,316c-32.999,0-60-27.001-60-60
	c0-33.001,27.001-60,60-60s60,26.999,60,60C420,288.999,392.999,316,360,316z"/>
<path style="fill:#896748;" d="M240,226c-16.5,0-30,13.5-30,30s13.5,30,30,30s30-13.5,30-30S256.5,226,240,226z"/>
<path style="fill:#73553A;" d="M270,256c0,16.5-13.5,30-30,30v-60C256.5,226,270,239.5,270,256z"/>
<g>
</g>
<g>
</g>
<g>
</g>
<g>
</g>
<g>
</g>
<g>
</g>
<g>
</g>
<g>
</g>
<g>
</g>
<g>
</g>
<g>
</g>
<g>
</g>
<g>
</g>
<g>
</g>
<g>
</g>
</svg>
