<svg id="Layer_1" height="512" viewBox="0 0 128 128" width="512" xmlns="http://www.w3.org/2000/svg" data-name="Layer 1"><path d="m91.7 111.445-24.359-14.98 14.043-8.638a1.75 1.75 0 0 0 -1.834-2.981l-15.55 9.564-15.55-9.565a1.75 1.75 0 0 0 -1.834 2.981l14.044 8.639-24.355 14.98a1.75 1.75 0 1 0 1.834 2.981l25.861-15.907 25.861 15.907a1.75 1.75 0 0 0 1.834-2.981z" fill="#29295b"/><path d="m50.862 80.308a1.748 1.748 0 0 0 1.348-.633l11.79-14.218 11.791 14.218a1.75 1.75 0 1 0 2.693-2.234l-12.211-14.726 3.707-4.471a1.75 1.75 0 1 0 -2.693-2.234l-3.287 3.964-3.287-3.964a1.75 1.75 0 1 0 -2.694 2.234l3.708 4.471-12.211 14.725a1.75 1.75 0 0 0 1.346 2.867z" fill="#29295b"/><path d="m61.35 22.966h5.301v11.048h-5.301z" fill="#18bdb1"/><path d="m58.804 34.015h10.391v5.313h-10.391z" fill="#383c7c"/><path d="m56.851 39.328h14.298v10.391h-14.298z" fill="#18bdb1"/><circle cx="64" cy="19.493" fill="#ff5c3c" r="7.149"/><path d="m11.869 112.936h104.262v8.009h-104.262z" fill="#29295b"/><path d="m37.222 112.936 22.144-55.809h9.268l22.144 55.809h7.969l-24.155-60.879a3.7 3.7 0 0 0 -3.442-2.338h-14.3a3.7 3.7 0 0 0 -3.443 2.338l-24.155 60.879z" fill="#383c7c"/><path d="m36.136 78.558h55.729v7.778h-55.729z" fill="#29295b"/><g fill="#fda736"><path d="m50.575 29.441a1.745 1.745 0 0 1 -1.227-.5 13.219 13.219 0 0 1 -3.573-9.446 13.217 13.217 0 0 1 3.573-9.445 1.75 1.75 0 1 1 2.454 2.5 9.862 9.862 0 0 0 -2.527 6.949 9.863 9.863 0 0 0 2.527 6.95 1.75 1.75 0 0 1 -1.227 3z"/><path d="m41.746 33.681a1.745 1.745 0 0 1 -1.227-.5c-3.225-3.171-5.15-8.288-5.15-13.686s1.925-10.514 5.15-13.686a1.75 1.75 0 1 1 2.454 2.5c-2.57 2.527-4.1 6.71-4.1 11.189s1.534 8.663 4.1 11.19a1.75 1.75 0 0 1 -1.227 3z"/><path d="m77.425 29.441a1.75 1.75 0 0 1 -1.227-3 9.861 9.861 0 0 0 2.526-6.95 9.86 9.86 0 0 0 -2.524-6.947 1.75 1.75 0 1 1 2.453-2.5 13.216 13.216 0 0 1 3.573 9.445 13.217 13.217 0 0 1 -3.573 9.446 1.743 1.743 0 0 1 -1.228.506z"/><path d="m86.254 33.681a1.75 1.75 0 0 1 -1.227-3c2.569-2.527 4.1-6.71 4.1-11.19s-1.527-8.66-4.1-11.191a1.75 1.75 0 1 1 2.453-2.5c3.226 3.171 5.15 8.287 5.15 13.685s-1.925 10.515-5.15 13.686a1.74 1.74 0 0 1 -1.226.51z"/></g></svg>