<svg height="512pt" viewBox="0 0 512 512" width="512pt" xmlns="http://www.w3.org/2000/svg"><path d="m227.855469 406.839844h-107.695313c-8.285156 0-15-6.714844-15-15v-107.695313c0-6.066406 3.652344-11.535156 9.257813-13.855469 5.605469-2.320312 12.058593-1.039062 16.347656 3.25l31.035156 31.035157c5.859375 5.859375 5.859375 15.355469 0 21.214843-5.855469 5.855469-15.355469 5.855469-21.210937 0l-5.429688-5.429687v56.480469h92.695313c8.28125 0 15 6.71875 15 15 0 8.285156-6.714844 15-15 15zm0 0" fill="#47568c"/><path d="m227.855469 376.839844h-92.695313v-56.480469l5.429688 5.429687c5.855468 5.855469 15.351562 5.855469 21.210937 0 5.859375-5.859374 5.859375-15.355468 0-21.214843l-31.035156-31.035157c-2.867187-2.867187-6.703125-4.382812-10.601563-4.382812v137.6875h107.691407c8.285156 0 15-6.71875 15-15 0-8.285156-6.714844-15.003906-15-15.003906zm0 0" fill="#2c3b73"/><path d="m391.84375 242.855469c-3.902344 0-7.738281-1.527344-10.609375-4.394531l-31.035156-31.035157c-5.855469-5.859375-5.855469-15.355469 0-21.214843 5.859375-5.855469 15.355469-5.855469 21.214843 0l5.429688 5.429687v-56.480469h-92.695312c-8.285157 0-15-6.71875-15-15 0-8.285156 6.714843-15 15-15h107.695312c8.28125 0 15 6.714844 15 15v107.695313c0 6.066406-3.65625 11.535156-9.261719 13.855469-1.855469.769531-3.804687 1.144531-5.738281 1.144531zm0 0" fill="#47568c"/><path d="m397.582031 241.710938c5.605469-2.320313 9.257813-7.789063 9.257813-13.855469v-107.695313c0-8.285156-6.714844-15-15-15v137.695313h.003906c1.933594 0 3.882812-.375 5.738281-1.144531zm0 0" fill="#2c3b73"/><path d="m497 271.683594h-210.316406c-8.285156 0-15 6.714844-15 15v210.316406c0 8.285156 6.714844 15 15 15h210.316406c8.285156 0 15-6.714844 15-15v-210.316406c0-8.285156-6.714844-15-15-15zm0 0" fill="#e0f4ff"/><path d="m497 271.683594h-105.847656v240.316406h105.847656c8.285156 0 15-6.714844 15-15v-210.316406c0-8.285156-6.714844-15-15-15zm0 0" fill="#d7e9ff"/><path d="m497 271.683594h-210.316406c-8.285156 0-15 6.714844-15 15v210.316406c0 8.285156 6.714844 15 15 15h210.316406c8.285156 0 15-6.714844 15-15v-210.316406c0-8.285156-6.714844-15-15-15zm-97.324219 76.839844c-.609375 8.175781-2.175781 15.992187-4.652343 23.238281-2.820313 8.238281-6.726563 15.980469-11.609376 23.011719-4.839843 6.964843-10.667968 13.421874-17.320312 19.191406-5.847656 5.0625-12.339844 9.738281-19.304688 13.886718-1.824218 1.085938-3.839843 1.609376-5.839843 1.609376-3.675781 0-7.289063-1.765626-9.503907-5l-.726562-1.058594c-1.835938-2.679688-2.453125-6.027344-1.695312-9.1875.753906-3.148438 2.820312-5.84375 5.660156-7.390625 4.429687-2.410157 8.703125-5.1875 12.703125-8.25 5.140625-3.9375 9.753906-8.449219 13.714843-13.414063 3.921876-4.914062 7.199219-10.402344 9.742188-16.308594 1.324219-3.074218 2.402344-6.324218 3.230469-9.710937h-32.726563c-6.339844 0-11.496094-5.15625-11.496094-11.496094 0-6.339843 5.15625-11.496093 11.496094-11.496093h46.855469c3.1875 0 6.257813 1.339843 8.425781 3.675781 2.171875 2.339843 3.28125 5.511719 3.046875 8.699219zm43.804688 48.371093h-9.179688v49.746094c0 6.339844-5.15625 11.496094-11.496093 11.496094h-.957032c-6.339844 0-11.496094-5.15625-11.496094-11.496094v-109.601563c0-6.339843 5.15625-11.496093 11.496094-11.496093h.957032c6.339843 0 11.496093 5.15625 11.496093 11.496093v36.863282h9.179688c6.335937 0 11.496093 5.15625 11.496093 11.496094 0 6.339843-5.160156 11.496093-11.496093 11.496093zm0 0" fill="#6e67d6"/><path d="m497 271.683594h-105.847656v64.871094c2.078125.554687 3.992187 1.671874 5.476562 3.269531 2.171875 2.34375 3.28125 5.511719 3.046875 8.699219-.609375 8.175781-2.175781 15.996093-4.652343 23.238281-1.121094 3.269531-2.417969 6.457031-3.871094 9.558593v130.679688h105.847656c8.285156 0 15-6.714844 15-15v-210.316406c0-8.285156-6.714844-15-15-15zm-53.519531 125.210937h-9.179688v49.746094c0 6.339844-5.15625 11.496094-11.496093 11.496094h-.957032c-6.339844 0-11.496094-5.15625-11.496094-11.496094v-109.601563c0-6.339843 5.15625-11.496093 11.496094-11.496093h.957032c6.339843 0 11.496093 5.15625 11.496093 11.496093v36.863282h9.179688c6.335937 0 11.496093 5.15625 11.496093 11.496094 0 6.339843-5.160156 11.496093-11.496093 11.496093zm0 0" fill="#534ccf"/><path d="m225.316406 0h-210.316406c-8.285156 0-15 6.714844-15 15v210.316406c0 8.285156 6.714844 15 15 15h210.316406c8.285156 0 15-6.714844 15-15v-210.316406c0-8.285156-6.714844-15-15-15zm0 0" fill="#e0f4ff"/><path d="m240.316406 225.316406v-210.316406c0-8.285156-6.714844-15-15-15h-105.152344v240.316406h105.152344c8.285156 0 15-6.714844 15-15zm0 0" fill="#bbdcff"/><path d="m112.339844 124.601562h15.441406l-7.746094-21.691406c-2.515625 7.113282-5.269531 14.898438-7.695312 21.691406zm0 0" fill="#29daf8"/><path d="m225.316406 0h-210.316406c-8.285156 0-15 6.714844-15 15v210.316406c0 8.285156 6.714844 15 15 15h210.316406c8.285156 0 15-6.714844 15-15v-210.316406c0-8.285156-6.714844-15-15-15zm-55.039062 177.035156c-2.144532 3.101563-5.675782 4.953125-9.449219 4.953125h-3.898437c-4.773438 0-9.101563-3.003906-10.765626-7.476562l-9.105468-24.425781h-34.039063l-8.851562 24.339843c-1.648438 4.523438-5.984375 7.5625-10.800781 7.5625h-3.871094c-3.773438 0-7.308594-1.855469-9.453125-4.960937-2.144531-3.105469-2.628907-7.070313-1.289063-10.597656l38.191406-100.6875c1.683594-4.433594 6-7.414063 10.742188-7.414063h5.152344c4.75 0 9.070312 2.988281 10.75 7.433594l37.984375 100.683593c1.335937 3.527344.851562 7.484376-1.296875 10.589844zm0 0" fill="#29daf8"/><g fill="#00c1f1"><path d="m120.164062 103.273438v21.328124h7.617188zm0 0"/><path d="m225.316406 0h-105.152344v58.328125h2.675782c4.753906 0 9.070312 2.988281 10.75 7.433594l37.988281 100.683593c1.328125 3.527344.847656 7.484376-1.300781 10.589844-2.144532 3.101563-5.679688 4.953125-9.449219 4.953125h-3.898437c-4.773438 0-9.101563-3.003906-10.765626-7.476562l-9.105468-24.425781h-16.898438v90.230468h105.15625c8.285156 0 15-6.714844 15-15v-210.316406c0-8.285156-6.714844-15-15-15zm0 0"/></g></svg>