<?xml version="1.0" encoding="UTF-8"?>
<svg version="1.1" xmlns="http://www.w3.org/2000/svg" width="512" height="512">
<path fill="#00ace4" d="M0 0 C7.85384555 5.55770466 11.93473221 11.65892642 14 21 C14.91641035 29.9808214 11.41937093 37.43901407 6 44.375 C-1.28996753 53.92783849 -4 67.06629507 -4 79 C-3.10506836 79.06993164 -2.21013672 79.13986328 -1.28808594 79.21191406 C54.61194423 83.67530543 54.61194423 83.67530543 76 101 C76.59167969 101.42925781 77.18335938 101.85851562 77.79296875 102.30078125 C89.89260828 111.35218254 93.87173492 127.84902391 96 142 C96.9351886 149.38060492 97.62392214 156.78742226 98.30761719 164.19482422 C98.62253143 167.5983205 98.95092704 171.00031216 99.28125 174.40234375 C101.64545217 199.17571589 102.75826862 223.5001019 100.85009766 248.32666016 C100.15786203 257.41389103 99.63786906 266.49881432 99.18121338 275.60037231 C97.8206552 302.38588059 95.95433971 329.00283699 92.125 355.5625 C92.00797729 356.40575836 91.89095459 357.24901672 91.77038574 358.11782837 C89.92660176 371.23796465 87.70857635 384.9736138 77 394 C74.6827493 395.38476669 72.36480359 396.70385351 70 398 C68.73246523 398.73630547 67.466862 399.47594522 66.203125 400.21875 C50.2730883 409.46452014 35.86730241 413.10885861 17.375 413.6875 C16.16859863 413.7272998 14.96219727 413.76709961 13.71923828 413.80810547 C2.09907815 414.10923547 -9.50597218 413.90195567 -21.125 413.625 C-22.02212708 413.60376068 -22.91925415 413.58252136 -23.84356689 413.56063843 C-33.11149279 413.33207442 -42.36206365 413.00032405 -51.6171875 412.4609375 C-61.08474223 411.92104834 -70.5200138 411.88674473 -80 412 C-80.7459845 412.00791565 -81.49196899 412.0158313 -82.26055908 412.02398682 C-87.69538907 412.08555238 -93.1287319 412.18985042 -98.5625 412.3125 C-99.42862915 412.33134247 -100.2947583 412.35018494 -101.18713379 412.36959839 C-116.63977062 412.72016516 -132.05691059 413.49477116 -147.48861694 414.3543396 C-217.86224564 418.2489184 -217.86224564 418.2489184 -240 411 C-241.22589844 410.62746094 -242.45179688 410.25492187 -243.71484375 409.87109375 C-264.3283661 402.83651478 -280.55156291 387.2734872 -290.3125 368.0625 C-300.2761957 347.61551462 -302.94804331 325.14896741 -303.625 302.6875 C-303.64779022 301.94582581 -303.67058044 301.20415161 -303.69406128 300.44000244 C-304.03792446 288.67393529 -303.89890683 276.9787627 -303.48693848 265.21786499 C-302.91646563 248.54761038 -302.88000699 231.87961283 -302.87617111 215.20160675 C-302.8750033 213.00620482 -302.87164955 210.81081604 -302.8677063 208.61541748 C-302.8607506 204.47275866 -302.86317006 200.33016308 -302.8671875 196.1875 C-302.86519852 194.93079498 -302.86320953 193.67408997 -302.86116028 192.37930298 C-302.86427719 191.21643768 -302.8673941 190.05357239 -302.87060547 188.85546875 C-302.87140106 187.84121826 -302.87219666 186.82696777 -302.87301636 185.78198242 C-302.9963174 183.08067912 -303.43302964 180.63834094 -304 178 C-305.03599379 160.52756629 -301.95158062 145.56045587 -294 130 C-293.15501953 128.33324219 -293.15501953 128.33324219 -292.29296875 126.6328125 C-280.4080089 105.45220866 -258.67291331 89.8627264 -235.72241211 82.95117188 C-225.53796126 80.11502014 -215.33480496 78.69842605 -204.8125 77.875 C-203.76513672 77.78863281 -202.71777344 77.70226562 -201.63867188 77.61328125 C-199.0927988 77.40403141 -196.5466389 77.19967344 -194 77 C-194.66631212 64.79596743 -195.51322292 52.52851415 -198.125 40.5625 C-199.97640153 31.60410548 -199.23180833 24.25140209 -195 16 C-190.3559623 9.63943191 -183.69994376 5.56932187 -176 4 C-167.62587664 3.10382189 -160.66273149 4.67647686 -153.76953125 9.58984375 C-139.63775682 22.1307993 -139.70889201 46.04018589 -138.08935547 63.50415039 C-137.91944092 65.25779907 -137.91944092 65.25779907 -137.74609375 67.046875 C-137.64997803 68.09713867 -137.5538623 69.14740234 -137.45483398 70.22949219 C-137.01477794 72.90998385 -136.26032023 74.63022665 -135 77 C-127.10621584 77.06990045 -119.21256374 77.12301242 -111.31854534 77.15543652 C-107.65194861 77.1710084 -103.98556559 77.19208875 -100.3190918 77.22631836 C-96.77235158 77.25921815 -93.22581528 77.27691653 -89.6789341 77.28463173 C-87.68560172 77.29276919 -85.69234993 77.31613815 -83.69914246 77.33988953 C-76.23454265 77.34125308 -68.93388048 77.05560747 -62 74 C-60.19152171 71.40169862 -60.19152171 71.40169862 -60 68 C-59.72063295 66.57931632 -59.4335636 65.16013498 -59.140625 63.7421875 C-58.84360906 62.11981746 -58.5467417 60.49742022 -58.25 58.875 C-52.58713836 29.57064301 -52.58713836 29.57064301 -44 18 C-42.86884766 16.38158203 -42.86884766 16.38158203 -41.71484375 14.73046875 C-32.16096434 1.38953353 -16.45028743 -9.68811394 0 0 Z M-186 129 C-187.23363281 129.10715332 -188.46726562 129.21430664 -189.73828125 129.32470703 C-224.65569817 131.49928136 -224.65569817 131.49928136 -254 148 C-254.7425 148.7425 -255.485 149.485 -256.25 150.25 C-267.02155055 167.17672229 -265.45151539 191.30290774 -265.36328125 210.5703125 C-265.36276015 212.87075805 -265.36328746 215.17120405 -265.36479187 217.47164917 C-265.36470296 222.26013973 -265.35444658 227.04845912 -265.33618164 231.83691406 C-265.3135726 237.88792366 -265.31312528 243.93868499 -265.31943989 249.98972511 C-268.68175662 309.63039203 -268.68175662 309.63039203 -247.44921875 362.703125 C-233.32663937 376.05047926 -211.44795282 376.34016418 -193.19102478 375.83734131 C-187.52198551 375.64863109 -181.8548801 375.42009547 -176.1875 375.1875 C-173.71584973 375.09249335 -171.24416931 374.99826804 -168.77246094 374.90478516 C-157.64430076 374.47996185 -146.51748816 374.02297776 -135.39085388 373.56011963 C-109.03439284 372.46404664 -82.81183774 371.42037617 -56.43286133 372.36279297 C-39.04262125 372.97928921 -21.65923236 373.14467109 -4.25934982 373.18167114 C-2.20323994 373.18745572 -0.14718383 373.19714981 1.90890503 373.20800781 C5.8207944 373.22801353 9.73258844 373.23016892 13.64453125 373.23046875 C14.81221039 373.23761398 15.97988953 373.24475922 17.18295288 373.25212097 C31.75446068 373.28337747 31.75446068 373.28337747 45 368 C47.54539018 364.2116506 47.92629773 359.66871401 48.65625 355.2578125 C48.8036412 354.39043457 48.95103241 353.52305664 49.10289001 352.62939453 C49.57884423 349.79618156 50.04148806 346.96108587 50.5 344.125 C50.6575174 343.15560486 50.81503479 342.18620972 50.97732544 341.18743896 C53.670691 324.45469608 55.52944833 307.95887243 56 291 C56.05559082 289.2365625 56.05559082 289.2365625 56.11230469 287.4375 C56.73311159 264.81800104 55.18858847 242.27466468 51.30712891 219.98046875 C48.93284844 206.21338763 48.87810768 193.11490836 49.61621094 179.21777344 C50.18560821 168.47373761 50.18560821 168.47373761 48 158 C47.78569336 157.33387695 47.57138672 156.66775391 47.35058594 155.98144531 C46.68308885 154.02479075 45.9500706 152.10885935 45.1875 150.1875 C44.95224609 149.54619141 44.71699219 148.90488281 44.47460938 148.24414062 C42.46866959 143.15294963 39.93485965 140.37607233 34.9921875 138.05859375 C19.00351034 133.36818846 2.02962153 132.25280223 -14.5 130.9375 C-15.54199554 130.85350952 -16.58399109 130.76951904 -17.65756226 130.6829834 C-73.32929087 126.22751769 -130.27261284 124.09473562 -186 129 Z " transform="translate(356,40)"/>
<path fill="#00ace4" d="M0 0 C3.03923011 2.1453389 5.47931329 4.4635349 8.0625 7.125 C9.94797342 9.11413476 9.94797342 9.11413476 12.5 10.375 C19.70424189 15.05775723 20.60004624 23.3092234 22.5 31.125 C25.61770601 43.47906842 29.29888491 55.59633204 33.3125 67.6875 C33.57289063 68.4831134 33.83328125 69.27872681 34.1015625 70.09844971 C34.8452112 72.36478249 35.60175659 74.62633837 36.36328125 76.88671875 C36.58490433 77.56352188 36.8065274 78.24032501 37.03486633 78.93763733 C38.17917457 82.27078599 39.13716358 84.84287276 42 87 C44.12978261 87.85196447 44.12978261 87.85196447 46.4375 88.4375 C50.23293208 89.61007251 52.50719098 90.78012168 55 94 C56.75286476 97.50572953 56.70506431 101.18509848 56 105 C54.55996353 106.95550407 53.07534694 108.44715868 51.21484375 110.00390625 C49.25860996 113.21816821 50.23507747 116.48425624 51 120 C51.995501 122.87443595 53.25156149 125.58923398 54.5625 128.33203125 C54.9138501 129.09045822 55.2652002 129.84888519 55.62719727 130.6302948 C56.74110117 133.02935945 57.8699848 135.42098832 59 137.8125 C60.12663863 140.22332388 61.2501818 142.63556655 62.37280273 145.04826355 C63.06977934 146.54327318 63.76970046 148.03691445 64.47290039 149.52900696 C67.35821767 155.66933425 68.64177541 160.2494735 68 167 C66.65330105 170.44156397 65.37719608 171.71480296 62.4375 173.9375 C57.40870692 175.49185422 53.83284781 175.01009105 49 173 C42.75029765 167.63253891 38.97758456 160.900099 35.625 153.5 C35.16875244 152.52401855 34.71250488 151.54803711 34.24243164 150.54248047 C30.20675231 141.77361414 26.61410335 132.82734794 23.17236328 123.81054688 C22.78419434 122.80314453 22.39602539 121.79574219 21.99609375 120.7578125 C21.65763428 119.8620752 21.3191748 118.96633789 20.97045898 118.04345703 C20.17735207 115.83197041 20.17735207 115.83197041 18 115 C9.33208297 114.62020956 0.60164412 115.09010463 -8.0625 115.4375 C-9.14337891 115.47681641 -10.22425781 115.51613281 -11.33789062 115.55664062 C-14.56003095 115.68212841 -17.77948694 115.83845879 -21 116 C-22.1019873 116.03883301 -23.20397461 116.07766602 -24.33935547 116.11767578 C-25.93287842 116.20057861 -25.93287842 116.20057861 -27.55859375 116.28515625 C-28.50919678 116.32648682 -29.4597998 116.36781738 -30.43920898 116.41040039 C-33.7813 117.17988745 -34.94276657 118.2752159 -37 121 C-38.02307638 123.80228846 -38.02307638 123.80228846 -38.5625 126.9609375 C-38.79984863 128.14478027 -39.03719727 129.32862305 -39.28173828 130.54833984 C-39.51876465 131.8111377 -39.75579102 133.07393555 -40 134.375 C-40.2563623 135.66744629 -40.51272461 136.95989258 -40.77685547 138.29150391 C-41.97766793 144.36760935 -43.09314618 150.45658309 -44.1328125 156.5625 C-44.30296875 157.55072754 -44.473125 158.53895508 -44.6484375 159.55712891 C-44.95672565 161.38000895 -45.25189821 163.20517665 -45.53125 165.03271484 C-46.60817781 171.51079122 -48.20631693 176.96823049 -53.75 181 C-57.84744906 182.26075356 -60.90578951 182.24936733 -65 181 C-68.5274902 178.77614748 -70.49366351 176.86122062 -72 173 C-78.06653015 123.06287809 -47.7554036 46.11036914 -18 8 C-12.71662551 2.51428351 -7.89860476 -0.95327988 0 0 Z M-6 39 C-10.00969245 45.14142768 -13.30528631 51.43494931 -16.4375 58.0625 C-16.91614502 59.0716748 -17.39479004 60.08084961 -17.88793945 61.12060547 C-25.14998075 75.00703031 -25.14998075 75.00703031 -28 90 C-8.10299628 91.88953356 -8.10299628 91.88953356 9.66137695 87.46801758 C10.32399536 86.74134888 10.32399536 86.74134888 11 86 C9.00478469 78.79159499 6.98804304 71.58952622 4.95361328 64.39208984 C4.07035015 61.25024192 3.20415485 58.10413124 2.33984375 54.95703125 C1.83174727 53.15856622 1.32268899 51.36037254 0.8125 49.5625 C0.58739746 48.72364258 0.36229492 47.88478516 0.13037109 47.02050781 C-0.95694129 42.67607941 -0.95694129 42.67607941 -4.09106445 39.76928711 C-4.72101318 39.51542236 -5.35096191 39.26155762 -6 39 Z " transform="translate(264,196)"/>
</svg>
