<?xml version="1.0" encoding="UTF-8" standalone="no"?>
<svg
   version="1.0"
   width="256.000000pt"
   height="256.000000pt"
   viewBox="0 0 256.000000 256.000000"
   preserveAspectRatio="xMidYMid meet"
   sodipodi:docname="angel.svg"
   inkscape:version="1.2.1 (9c6d41e410, 2022-07-14)"
   xmlns:inkscape="http://www.inkscape.org/namespaces/inkscape"
   xmlns:sodipodi="http://sodipodi.sourceforge.net/DTD/sodipodi-0.dtd"
   xmlns="http://www.w3.org/2000/svg"
   xmlns:svg="http://www.w3.org/2000/svg">
  <path
     fill="#00ace4"
     d="m 172.76271,31.34745 c -29.1,6.5 -66.1,23.2 -87.499999,39.4 -16.3,12.4 -28.699999,23.4 -34.499999,30.6 -2.6,3.3 -8.2,9.8 -12.4,14.4 -12.900001,14.2 -15.800001,22.7 -16,46.6 0,13 0.199999,14.5 2.799999,21.5 9.300001,24.4 32.800001,45 58.4,51.1 7.500001,1.8 11.000001,2 25.699999,1.7 16.4,-0.5 17.4,-0.6 28.5,-4.3 6.3,-2 14.2,-5 17.5,-6.4 11.2,-5.1 24.9,-14.4 33.8,-23 17.8,-17.1 20.5,-31.9 7.7,-42.2 -2.2,-1.8 -4,-3.6 -4,-4.1 0,-0.5 3.7,-4.6 8.3,-9.1 9.4,-9.3 14.1,-15.6 17.4,-23.7 2.9,-7 2.9,-12.4 0.1,-18 -3.2,-6.2 -8.2,-9.8 -15.6,-11.3 -3.3,-0.7 -6.4,-1.5 -6.7,-1.9 -0.3,-0.3 3.2,-3.5 7.8,-7.1 10.2,-8 19.8,-18.3 22.8,-24.5 2.8,-5.6 3.6,-14.1 1.9,-18.2 -1.8,-4.3 -8.3,-9.6 -14.7,-12 -7.8,-2.9 -26.9,-2.7 -41.3,0.5 z m 27.5,20.6 c 9.7,2.7 9.9,6.7 0.8,15.8 -8.2,8.1 -20.8,17.2 -44.8,32.1 -9.9,6.2 -19,12.2 -20.2,13.3 -3.2,2.8 -3.2,9 -0.1,11.1 3.3,2.3 5.8,2 14.5,-2 24,-10.9 47,-15 49.3,-8.8 2.1,5.4 -2.4,12.8 -14.3,23.6 -11.9,10.8 -16.3,14 -27.3,19.3 -5.5,2.7 -10.4,5.6 -11.1,6.4 -2.2,2.8 -1.5,7.1 1.6,10.2 3.5,3.4 4.5,3.5 14.7,0.9 8.4,-2.1 20.9,-2.7 21.9,-1 1.1,1.7 -3.9,9.1 -9.7,14.6 -17.9,16.8 -39.6,26.1 -63.8,27.1 -14.499999,0.6 -25.199998,-0.7 -32.499999,-4.1 -11.899999,-5.6 -18.999999,-15.9 -18.999999,-27.6 0,-7.6 1.9,-11.6 7.8,-16.4 3.5,-2.8 4.699999,-3.1 11.599999,-3.4 7.400001,-0.4 7.8,-0.3 12.1,3 4.800001,3.6 6.2,5.8 8.2,12.8 0.899999,3.3 2.099999,4.9 4.099999,5.8 6.3,3 9.7,-0.8 9.7,-10.9 0,-7.5 -1.9,-12.2 -7.3,-17.7 -6.599998,-6.8 -10.699999,-8.5 -21.699999,-9 -7.7,-0.3 -10.6,0 -15.199999,1.7 -8.3,2.9 -16.2,8.4 -21.5,15.2 -3.3,4.2 -5,5.6 -5.7,4.9 -1.800001,-1.8 -1.9,-15.1 -0.200001,-21.9 1.900001,-7.6 10.200001,-20.4 19.600001,-30.4 9.499999,-10.1 40.699998,-35.4 51.199998,-41.4 27.7,-15.9 71.4,-27.5 87.3,-23.2 z"
      />
</svg>
