<?xml version="1.0" encoding="UTF-8" standalone="no"?>
<svg
        width="550"
        height="410"
        viewBox="0 0 218.28125 162.71875"
        version="1.1"
        xmlns:inkscape="http://www.inkscape.org/namespaces/inkscape"
        xmlns="http://www.w3.org/2000/svg"
>
  <g
     inkscape:label="l1"
     inkscape:groupmode="layer"
     id="layer1"
     style="display:inline">
    <g
       aria-label="이미지를 찾을 수 없습니다."
       id="text2145"
       style="font-weight:bold;font-size:14.1111px;line-height:1.25;font-family:D2Coding;-inkscape-font-specification:'D2Coding, Bold';mix-blend-mode:normal;stroke:#000000;stroke-width:1;stroke-linecap:butt;stroke-linejoin:round;stroke-miterlimit:4;stroke-dasharray:none;stroke-dashoffset:0;stroke-opacity:1;paint-order:markers stroke fill"
       transform="translate(6.0307315,8.3523223)">
      <path
         d="m 24.701565,110.20785 h 1.749776 v 13.08099 h -1.749776 z m -1.834443,5.47511 q 0,1.143 -0.254,2.032 -0.239889,0.87489 -0.691444,1.48167 -0.451555,0.60677 -1.086555,0.91722 -0.620888,0.31044 -1.396999,0.31044 -0.77611,0 -1.41111,-0.31044 -0.620888,-0.31045 -1.072443,-0.91722 -0.451556,-0.60678 -0.705555,-1.48167 -0.239889,-0.889 -0.239889,-2.032 0,-1.143 0.239889,-2.01789 0.253999,-0.889 0.705555,-1.49577 0.451555,-0.60678 1.072443,-0.91722 0.635,-0.31045 1.41111,-0.31045 0.776111,0 1.396999,0.31045 0.635,0.31044 1.086555,0.91722 0.451555,0.60677 0.691444,1.49577 0.254,0.87489 0.254,2.01789 z m -1.777999,0 q 0,-1.524 -0.437444,-2.38477 -0.423333,-0.86078 -1.213555,-0.86078 -0.790221,0 -1.227665,0.86078 -0.423334,0.86077 -0.423334,2.38477 0,1.524 0.423334,2.38478 0.437444,0.86077 1.227665,0.86077 0.790222,0 1.213555,-0.86077 0.437444,-0.86078 0.437444,-2.38478 z"
         style="fill:#ffffff;stroke:#000000;stroke-width:1;stroke-linecap:butt;stroke-linejoin:round;stroke-miterlimit:4;stroke-dasharray:none;stroke-dashoffset:0;stroke-opacity:1;paint-order:markers stroke fill"
         id="path7489" />
      <path
         d="m 38.812665,110.20785 h 1.749776 v 13.08099 h -1.749776 z m -2.257776,9.60966 h -6.095996 v -8.5231 h 6.095996 z m -1.707443,-1.45344 v -5.63033 h -2.610554 v 5.63033 z"
         style="fill:#ffffff;stroke:#000000;stroke-width:1;stroke-linecap:butt;stroke-linejoin:round;stroke-miterlimit:4;stroke-dasharray:none;stroke-dashoffset:0;stroke-opacity:1;paint-order:markers stroke fill"
         id="path7486" />
      <path
         d="m 52.923765,110.20785 h 1.749776 v 13.08099 h -1.749776 z m -3.414886,5.74322 q 0.64911,0.91722 1.425221,1.70745 0.790221,0.79022 1.763887,1.43933 l -1.213554,1.25589 q -0.874888,-0.635 -1.580443,-1.36878 -0.691444,-0.74789 -1.326444,-1.60867 -0.747888,1.016 -1.679221,1.87678 -0.917221,0.84667 -1.961443,1.48167 l -1.185332,-1.143 q 1.227666,-0.70556 2.158998,-1.59456 0.931333,-0.889 1.566332,-1.80622 0.635,-0.91722 0.973666,-1.80622 0.352778,-0.889 0.423333,-1.59455 -0.691444,0.0282 -1.382888,0.0282 -0.677332,0 -1.354665,0 H 44.65466 v -1.49578 h 2.215443 q 0.888999,0 1.834443,0 0.945444,-0.0141 2.144887,-0.0282 -0.02822,1.19944 -0.380999,2.38477 -0.338667,1.17123 -0.959555,2.27189 z"
         style="fill:#ffffff;stroke:#000000;stroke-width:1;stroke-linecap:butt;stroke-linejoin:round;stroke-miterlimit:4;stroke-dasharray:none;stroke-dashoffset:0;stroke-opacity:1;paint-order:markers stroke fill"
         id="path7483" />
      <path
         d="m 59.668872,110.5183 h 8.46666 v 3.06211 h -6.745106 v 0.64911 h 7.041439 v 1.22766 h -8.762993 v -3.01977 h 6.745106 v -0.635 h -6.745106 z m 10.470436,5.61622 v 1.27 H 57.777984 v -1.27 z m -10.526881,7.15432 v -3.11855 h 6.928551 v -0.70555 h -6.928551 v -1.29823 h 8.664216 v 3.16089 h -6.914439 v 0.71967 h 7.253105 v 1.24177 z"
         style="fill:#ffffff;stroke:#000000;stroke-width:1;stroke-linecap:butt;stroke-linejoin:round;stroke-miterlimit:4;stroke-dasharray:none;stroke-dashoffset:0;stroke-opacity:1;paint-order:markers stroke fill"
         id="path7480" />
      <path
         d="m 91.320068,115.10441 h -1.961443 v 2.82222 H 87.62296 v -7.71878 h 1.735665 v 3.429 h 1.961443 z m -4.134552,5.91255 q 0.804333,0.28222 1.650999,0.508 0.860777,0.22577 1.947331,0.47977 l -0.959554,1.31234 q -1.199444,-0.29634 -2.243665,-0.64911 -1.030111,-0.35278 -2.04611,-0.80434 -1.03011,0.46567 -2.18722,0.83256 -1.143,0.381 -2.30011,0.64911 l -0.90311,-1.31233 q 1.354665,-0.28223 2.469442,-0.60678 1.114777,-0.31045 1.947332,-0.62089 0.832555,-0.31044 1.368777,-0.57855 0.536222,-0.26812 0.733777,-0.43745 -0.804333,0.0423 -1.523999,0.0565 -0.705555,0 -1.495776,0 h -2.257776 v -1.36878 h 4.190996 q 0.846666,0 1.66511,0 0.832555,0 1.763888,-0.0282 0.197555,0 0.282222,0.14111 0.08467,0.127 0,0.381 -0.197556,0.52211 -0.747889,1.04422 -0.550332,0.508 -1.354665,1.00189 z m -6.194773,-10.86555 h 4.007552 v 1.34055 h -4.007552 z m -1.128888,2.10255 h 2.455331 q 0.931333,0 1.820332,0 0.903111,-0.0141 1.820332,-0.0423 -0.05644,0.81844 -0.437444,1.58044 -0.366889,0.74789 -1.001888,1.42522 1.185332,0.80434 2.737553,1.35467 l -0.874888,1.19944 q -1.580443,-0.635 -2.878664,-1.63688 -0.747889,0.59266 -1.636888,1.07244 -0.888999,0.47978 -1.834443,0.80433 l -0.90311,-1.18533 q 1.100665,-0.33867 1.919109,-0.77611 0.832555,-0.43744 1.396999,-0.87489 0.578555,-0.45155 0.903111,-0.87489 0.338666,-0.43744 0.465666,-0.762 -0.592666,0.0282 -1.114777,0.0423 -0.508,0 -1.086555,0 h -1.749776 z"
         style="fill:#ffffff;stroke:#000000;stroke-width:1;stroke-linecap:butt;stroke-linejoin:round;stroke-miterlimit:4;stroke-dasharray:none;stroke-dashoffset:0;stroke-opacity:1;paint-order:markers stroke fill"
         id="path7477" />
      <path
         d="m 105.41706,115.48541 v 1.36877 H 93.055736 v -1.36877 z m -1.79211,-2.93511 q 0,0.508 -0.254,0.94544 -0.254,0.42333 -0.79022,0.74789 -0.53622,0.31044 -1.36878,0.49389 -0.81844,0.16933 -1.975552,0.16933 -1.15711,0 -1.989665,-0.16933 -0.818444,-0.18345 -1.354666,-0.49389 -0.536221,-0.32456 -0.790221,-0.74789 -0.254,-0.43744 -0.254,-0.94544 0,-0.508 0.254,-0.94545 0.254,-0.43744 0.790221,-0.74789 0.536222,-0.32455 1.354666,-0.50799 0.832555,-0.18345 1.989665,-0.18345 1.157112,0 1.975552,0.18345 0.83256,0.18344 1.36878,0.50799 0.53622,0.31045 0.79022,0.74789 0.254,0.43745 0.254,0.94545 z m -6.92855,0 q 0,0.22577 0.127,0.43744 0.141111,0.19756 0.437444,0.35278 0.296333,0.14111 0.776111,0.22578 0.493888,0.0847 1.199443,0.0847 0.705555,0 1.185332,-0.0847 0.49389,-0.0847 0.79022,-0.22578 0.29634,-0.15522 0.42334,-0.35278 0.14111,-0.21167 0.14111,-0.43744 0,-0.21167 -0.14111,-0.39511 -0.127,-0.19756 -0.42334,-0.35278 -0.29633,-0.15522 -0.79022,-0.23989 -0.479777,-0.0988 -1.185332,-0.0988 -0.705555,0 -1.199443,0.0988 -0.479778,0.0847 -0.776111,0.23989 -0.296333,0.15522 -0.437444,0.35278 -0.127,0.18344 -0.127,0.39511 z m -1.763887,10.73854 v -3.48544 h 6.815657 v -0.762 h -6.815657 v -1.397 h 8.565437 v 3.45722 h -6.829772 v 0.79023 h 7.154332 v 1.39699 z"
         style="fill:#ffffff;stroke:#000000;stroke-width:1;stroke-linecap:butt;stroke-linejoin:round;stroke-miterlimit:4;stroke-dasharray:none;stroke-dashoffset:0;stroke-opacity:1;paint-order:markers stroke fill"
         id="path7474" />
      <path
         d="m 121.56016,110.43363 q 0.0282,0.49389 -0.0564,0.95956 -0.0847,0.46566 -0.28222,0.91722 0.35278,0.49389 0.86078,0.889 0.52211,0.39511 1.12889,0.70555 0.60677,0.31045 1.28411,0.55034 0.69144,0.22577 1.41111,0.36688 l -0.889,1.38289 q -1.43934,-0.32455 -2.63878,-0.95955 -1.18533,-0.635 -2.07433,-1.524 -0.80433,0.889 -1.96144,1.55222 -1.15711,0.66322 -2.48356,1.03011 l -0.91722,-1.35467 q 1.143,-0.29633 2.032,-0.74788 0.90311,-0.45156 1.50989,-1.016 0.62089,-0.57856 0.94544,-1.27 0.32456,-0.69145 0.31045,-1.48167 z m -7.22489,8.19855 v -1.45344 h 12.10733 v 1.45344 h -5.03766 v 4.58611 h -1.778 v -4.58611 z"
         style="fill:#ffffff;stroke:#000000;stroke-width:1;stroke-linecap:butt;stroke-linejoin:round;stroke-miterlimit:4;stroke-dasharray:none;stroke-dashoffset:0;stroke-opacity:1;paint-order:markers stroke fill"
         id="path7471" />
      <path
         d="m 142.79736,112.84663 h 1.83444 v -2.63878 h 1.74978 v 6.87211 h -1.74978 v -2.77989 h -1.79211 q -0.0988,0.57856 -0.38099,1.05834 -0.28223,0.46566 -0.71967,0.80433 -0.43744,0.33867 -1.00189,0.52211 -0.56444,0.18344 -1.24178,0.18344 -0.762,0 -1.39699,-0.22577 -0.62089,-0.23989 -1.07245,-0.66323 -0.43744,-0.42333 -0.69144,-1.00188 -0.23989,-0.59267 -0.23989,-1.29823 0,-0.69144 0.23989,-1.26999 0.254,-0.59267 0.69144,-1.016 0.45156,-0.42334 1.07245,-0.66322 0.63499,-0.23989 1.39699,-0.23989 1.28411,0 2.159,0.64911 0.87489,0.64911 1.143,1.70744 z m -3.31611,-0.93133 q -0.77611,0 -1.21355,0.47977 -0.43745,0.46567 -0.43745,1.29823 0,0.84666 0.43745,1.31233 0.43744,0.45155 1.21355,0.45155 0.77611,0 1.21356,-0.45155 0.45155,-0.46567 0.45155,-1.31233 0,-0.83256 -0.45155,-1.29823 -0.43745,-0.47977 -1.21356,-0.47977 z m 2.86456,11.21832 h -4.85422 v -5.31988 h 1.62277 v 1.41111 h 1.66511 v -1.53811 h 1.56634 v 4.10633 q 1.04422,-0.77611 1.41111,-1.80622 0.381,-1.03011 0.26811,-2.45533 h 1.60866 q 0.0141,0.47977 -0.0141,0.90311 -0.0282,0.42333 -0.0988,0.81844 0.254,0.94544 0.80434,1.651 0.56444,0.70555 1.49577,1.27 l -1.21355,1.143 q -1.19944,-0.81845 -1.83444,-1.93322 -0.33867,0.56444 -0.81845,1.04422 -0.46566,0.47977 -1.10066,0.93133 l -0.508,-0.39511 z m -1.524,-1.25589 v -1.45344 h -1.72156 v 1.45344 z"
         style="fill:#ffffff;stroke:#000000;stroke-width:1;stroke-linecap:butt;stroke-linejoin:round;stroke-miterlimit:4;stroke-dasharray:none;stroke-dashoffset:0;stroke-opacity:1;paint-order:markers stroke fill"
         id="path7468" />
      <path
         d="m 156.48513,111.73185 q 0.71966,0.81845 1.93322,1.36878 1.22766,0.55033 2.63877,0.74789 l -0.86077,1.35466 q -1.41111,-0.23988 -2.56822,-0.83255 -1.143,-0.60678 -2.01789,-1.397 -0.42333,0.43744 -0.95956,0.81844 -0.52211,0.381 -1.11477,0.67734 -0.57856,0.29633 -1.19945,0.508 -0.60677,0.21166 -1.21355,0.31044 l -0.83256,-1.32644 q 1.07245,-0.18345 1.94734,-0.53622 0.87488,-0.35278 1.48166,-0.83256 0.62089,-0.49389 0.94545,-1.10067 0.33866,-0.60677 0.33866,-1.28411 h 1.79211 q 0.0423,0.762 -0.31044,1.524 z m 5.37633,4.03578 v 1.45344 h -12.36133 v -1.45344 z m -10.38577,7.32366 v -5.16466 h 1.72155 v 1.08655 h 5.08 v -1.08655 h 1.72155 v 5.16466 z m 6.81566,-2.73755 h -5.10822 v 1.31233 h 5.10822 z"
         style="fill:#ffffff;stroke:#000000;stroke-width:1;stroke-linecap:butt;stroke-linejoin:round;stroke-miterlimit:4;stroke-dasharray:none;stroke-dashoffset:0;stroke-opacity:1;paint-order:markers stroke fill"
         id="path7465" />
      <path
         d="m 172.86811,110.20785 h 1.74978 v 13.08099 h -1.74978 z m -5.39044,9.56733 h -2.94922 v -8.6501 h 1.778 v 7.14021 h 1.50989 q 2.46944,0 4.54377,-0.57855 v 1.49577 q -0.46566,0.127 -1.04422,0.23989 -0.57855,0.0988 -1.22766,0.18345 -0.635,0.0705 -1.31233,0.127 -0.66323,0.0423 -1.29823,0.0423 z"
         style="fill:#ffffff;stroke:#000000;stroke-width:1;stroke-linecap:butt;stroke-linejoin:round;stroke-miterlimit:4;stroke-dasharray:none;stroke-dashoffset:0;stroke-opacity:1;paint-order:markers stroke fill"
         id="path7462" />
      <path
         d="m 190.21066,116.38852 h -2.04611 v 6.90032 h -1.74978 v -13.08099 h 1.74978 v 4.68489 h 2.04611 z m -11.62755,-5.09411 h 6.05366 v 1.49578 h -4.27566 v 5.75732 h 1.00189 q 1.24177,0 2.37066,-0.14111 1.143,-0.15522 2.159,-0.42333 v 1.45344 q -0.46567,0.127 -1.05833,0.23989 -0.57856,0.11289 -1.22767,0.19756 -0.64911,0.0847 -1.32644,0.127 -0.66322,0.0423 -1.31234,0.0423 h -2.38477 z"
         style="fill:#ffffff;stroke:#000000;stroke-width:1;stroke-linecap:butt;stroke-linejoin:round;stroke-miterlimit:4;stroke-dasharray:none;stroke-dashoffset:0;stroke-opacity:1;paint-order:markers stroke fill"
         id="path7459" />
    </g>
    <path
       d="m 138.4581,57.892768 c 0,16.193328 -13.12415,29.317476 -29.31748,29.317476 -16.193318,0 -29.317471,-13.124148 -29.317471,-29.317476 0,-16.193326 13.124153,-29.317479 29.317471,-29.317479 16.19333,0 29.31748,13.124153 29.31748,29.317479 z M 91.218029,45.157988 c -2.559554,3.58452 -4.06551,7.982142 -4.06551,12.73478 0,12.139269 9.745766,21.988106 21.988101,21.988106 4.75264,0 9.15026,-1.500226 12.73478,-4.065508 z m 39.910701,12.73478 c 0,-12.242338 -9.84884,-21.988109 -21.98811,-21.988109 -4.75263,0 -9.150251,1.505956 -12.734775,4.06551 l 30.657375,30.657379 c 2.56528,-3.584519 4.06551,-7.982141 4.06551,-12.73478 z"
       id="path7492"
       style="mix-blend-mode:normal;fill:#ffffff;stroke:#000000;stroke-width:1;stroke-linecap:butt;stroke-linejoin:round;stroke-miterlimit:4;stroke-dasharray:none;stroke-dashoffset:0;stroke-opacity:1;paint-order:markers stroke fill" />
    <path
       style="mix-blend-mode:normal;fill:#ffffff;stroke:#000000;stroke-width:3.77953;stroke-linecap:butt;stroke-linejoin:round;stroke-miterlimit:4;stroke-dasharray:none;stroke-dashoffset:1.56747;stroke-opacity:1;paint-order:markers stroke fill"
       d=""
       id="path326"
       transform="matrix(0.26458333,0,0,0.26458333,13.800601,17.323851)" />
  </g>
</svg>
