<svg fill="#276998" id="Capa_1" enable-background="new 0 0 512 512" height="512" viewBox="0 0 512 512" width="512" xmlns="http://www.w3.org/2000/svg"><g><path d="m256 0c-141.579 0-256 114.382-256 256 0 141.582 114.381 256 256 256 141.579 0 256-114.382 256-256 0-141.582-114.381-256-256-256zm0 482c-124.617 0-226-101.383-226-226s101.383-226 226-226 226 101.383 226 226-101.383 226-226 226z"/><path d="m415.697 142.201-10.294-14.396-277.596 277.597 14.397 10.294c33.22 23.75 72.57 36.304 113.796 36.304 108.422 0 196-87.549 196-196 0-41.234-12.553-80.585-36.303-113.799zm-42.26 231.2c-31.325 31.339-73.032 48.599-117.437 48.599-28.866 0-56.63-7.252-81.258-21.107l226.154-226.154c13.854 24.624 21.104 52.389 21.104 81.261 0 44.376-17.247 86.07-48.563 117.401z"/><path d="m369.796 96.304c-33.22-23.75-72.57-36.304-113.796-36.304-108.422 0-196 87.549-196 196 0 41.234 12.553 80.585 36.303 113.799l10.294 14.396 277.597-277.597zm-258.692 240.957c-13.854-24.624-21.104-52.389-21.104-81.261 0-91.824 74.117-166 166-166 28.866 0 56.63 7.252 81.258 21.107z"/></g></svg>